<svg width="44" height="36" viewBox="0 0 44 36" fill="none" xmlns="http://www.w3.org/2000/svg">
<g filter="url(#filter0_d_38_39)">
<path d="M22.749 14.0459C23.599 13.302 24.2808 12.3818 24.7481 11.3479C25.2154 10.314 25.4572 9.1906 25.4572 8.05387C25.4572 5.91785 24.618 3.86932 23.1242 2.35892C21.6304 0.84853 19.6044 2.88185e-07 17.4918 2.88185e-07C15.3793 2.88185e-07 13.3533 0.84853 11.8595 2.35892C10.3657 3.86932 9.52647 5.91785 9.52647 8.05387C9.52646 9.1906 9.7683 10.314 10.2356 11.3479C10.7029 12.3818 11.3847 13.302 12.2347 14.0459C10.0046 15.067 8.11256 16.7158 6.78476 18.7954C5.45696 20.8749 4.7496 23.2971 4.74725 25.7724C4.74725 26.1996 4.91509 26.6093 5.21385 26.9114C5.51261 27.2134 5.91782 27.3831 6.34033 27.3831C6.76283 27.3831 7.16804 27.2134 7.4668 26.9114C7.76556 26.6093 7.9334 26.1996 7.9334 25.7724C7.9334 23.2091 8.94044 20.7509 10.733 18.9384C12.5256 17.126 14.9568 16.1077 17.4918 16.1077C20.0269 16.1077 22.4581 17.126 24.2507 18.9384C26.0432 20.7509 27.0503 23.2091 27.0503 25.7724C27.0503 26.1996 27.2181 26.6093 27.5169 26.9114C27.8156 27.2134 28.2208 27.3831 28.6433 27.3831C29.0658 27.3831 29.4711 27.2134 29.7698 26.9114C30.0686 26.6093 30.2364 26.1996 30.2364 25.7724C30.2341 23.2971 29.5267 20.8749 28.1989 18.7954C26.8711 16.7158 24.979 15.067 22.749 14.0459ZM17.4918 12.8862C16.5466 12.8862 15.6226 12.6028 14.8366 12.0718C14.0507 11.5408 13.4381 10.7861 13.0764 9.90311C12.7147 9.02012 12.62 8.0485 12.8044 7.11113C12.9889 6.17375 13.444 5.31271 14.1124 4.6369C14.7808 3.96109 15.6324 3.50085 16.5595 3.3144C17.4865 3.12794 18.4475 3.22364 19.3208 3.58939C20.194 3.95513 20.9405 4.5745 21.4656 5.36917C21.9908 6.16384 22.271 7.09812 22.271 8.05387C22.271 9.33548 21.7675 10.5646 20.8712 11.4708C19.975 12.3771 18.7594 12.8862 17.4918 12.8862ZM33.0084 13.4016C34.0279 12.2408 34.6938 10.8068 34.9261 9.27216C35.1584 7.73755 34.947 6.16777 34.3175 4.75178C33.688 3.33579 32.6671 2.13394 31.3778 1.29091C30.0885 0.447875 28.5857 -0.000414935 27.0503 2.88185e-07C26.6278 2.88185e-07 26.2226 0.169706 25.9238 0.471785C25.625 0.773863 25.4572 1.18357 25.4572 1.61077C25.4572 2.03798 25.625 2.44768 25.9238 2.74976C26.2226 3.05184 26.6278 3.22155 27.0503 3.22155C28.3178 3.22155 29.5334 3.73066 30.4297 4.6369C31.326 5.54314 31.8295 6.77225 31.8295 8.05387C31.8272 8.89991 31.6053 9.73053 31.186 10.4627C30.7666 11.1948 30.1645 11.8027 29.4399 12.2258C29.2037 12.3635 29.0064 12.5603 28.8669 12.7972C28.7275 13.0341 28.6505 13.3032 28.6433 13.5788C28.6367 13.8523 28.699 14.1229 28.8244 14.3653C28.9498 14.6076 29.1342 14.8137 29.3602 14.9641L29.9815 15.3829L30.1886 15.4956C32.1089 16.4165 33.7289 17.8731 34.8579 19.6938C35.9868 21.5145 36.5777 23.6235 36.5609 25.7724C36.5609 26.1996 36.7287 26.6093 37.0275 26.9114C37.3263 27.2134 37.7315 27.3831 38.154 27.3831C38.5765 27.3831 38.9817 27.2134 39.2805 26.9114C39.5792 26.6093 39.7471 26.1996 39.7471 25.7724C39.7601 23.3005 39.1478 20.8664 37.9683 18.7012C36.7889 16.536 35.0815 14.7117 33.0084 13.4016Z" fill="black"/>
</g>
<defs>
<filter id="filter0_d_38_39" x="0.747253" y="0" width="43" height="35.3832" filterUnits="userSpaceOnUse" color-interpolation-filters="sRGB">
<feFlood flood-opacity="0" result="BackgroundImageFix"/>
<feColorMatrix in="SourceAlpha" type="matrix" values="0 0 0 0 0 0 0 0 0 0 0 0 0 0 0 0 0 0 127 0" result="hardAlpha"/>
<feOffset dy="4"/>
<feGaussianBlur stdDeviation="2"/>
<feComposite in2="hardAlpha" operator="out"/>
<feColorMatrix type="matrix" values="0 0 0 0 0 0 0 0 0 0 0 0 0 0 0 0 0 0 0.25 0"/>
<feBlend mode="normal" in2="BackgroundImageFix" result="effect1_dropShadow_38_39"/>
<feBlend mode="normal" in="SourceGraphic" in2="effect1_dropShadow_38_39" result="shape"/>
</filter>
</defs>
</svg>
